<mxfile host="app.diagrams.net" modified="2021-12-03T15:48:41.087Z" agent="5.0 (Windows NT 10.0; Win64; x64) AppleWebKit/537.36 (KHTML, like Gecko) Chrome/94.0.4606.85 YaBrowser/21.11.2.773 Yowser/2.5 Safari/537.36" etag="9wm0J74hsdH6CrLOUrxc" version="15.8.8" type="github">
  <diagram name="Page-1" id="ad52d381-51e7-2e0d-a935-2d0ddd2fd229">
    <mxGraphModel dx="1121" dy="561" grid="1" gridSize="10" guides="1" tooltips="1" connect="1" arrows="1" fold="1" page="1" pageScale="1" pageWidth="1100" pageHeight="850" background="none" math="0" shadow="0">
      <root>
        <mxCell id="0" />
        <mxCell id="1" parent="0" />
        <mxCell id="2c924340bb9dbf6c-1" value="&lt;span style=&quot;font-family: &amp;#34;helvetica&amp;#34;&quot;&gt;Формирование рейтинга блюд и качества обслуживания&lt;/span&gt;" style="whiteSpace=wrap;html=1;rounded=1;shadow=0;comic=0;labelBackgroundColor=none;strokeWidth=2;fontFamily=Verdana;fontSize=12;align=center;arcSize=50;" parent="1" vertex="1">
          <mxGeometry x="85" y="110" width="160" height="40" as="geometry" />
        </mxCell>
        <mxCell id="2c924340bb9dbf6c-11" value="Открытие счёта" style="whiteSpace=wrap;html=1;rounded=1;shadow=0;comic=0;labelBackgroundColor=none;strokeWidth=2;fontFamily=Verdana;fontSize=12;align=center;arcSize=50;" parent="1" vertex="1">
          <mxGeometry x="680" y="120" width="120" height="20" as="geometry" />
        </mxCell>
        <mxCell id="2c924340bb9dbf6c-14" value="Обслуживание клиента в порядке электронной очереди" style="whiteSpace=wrap;html=1;rounded=1;shadow=0;comic=0;labelBackgroundColor=none;strokeWidth=2;fontFamily=Verdana;fontSize=12;align=center;arcSize=50;" parent="1" vertex="1">
          <mxGeometry x="860" y="110" width="190" height="50" as="geometry" />
        </mxCell>
        <mxCell id="2c924340bb9dbf6c-18" value="Передача заказа на кухню" style="whiteSpace=wrap;html=1;rounded=1;shadow=0;comic=0;labelBackgroundColor=none;strokeWidth=2;fontFamily=Verdana;fontSize=12;align=center;arcSize=50;" parent="1" vertex="1">
          <mxGeometry x="890" y="235" width="100" height="50" as="geometry" />
        </mxCell>
        <mxCell id="2c924340bb9dbf6c-19" value="Формирование заказа" style="whiteSpace=wrap;html=1;rounded=1;shadow=0;comic=0;labelBackgroundColor=none;strokeWidth=2;fontFamily=Verdana;fontSize=12;align=center;arcSize=50;" parent="1" vertex="1">
          <mxGeometry x="640" y="240" width="120" height="40" as="geometry" />
        </mxCell>
        <mxCell id="2c924340bb9dbf6c-55" value="Подсчет прибыли в конце дня&amp;nbsp;" style="whiteSpace=wrap;html=1;rounded=1;shadow=0;comic=0;labelBackgroundColor=none;strokeWidth=2;fontFamily=Verdana;fontSize=12;align=center;arcSize=50;" parent="1" vertex="1">
          <mxGeometry x="370" y="110" width="150" height="40" as="geometry" />
        </mxCell>
        <mxCell id="YYdvZUi9x7q3sWrVz7vb-11" value="" style="edgeStyle=none;orthogonalLoop=1;jettySize=auto;html=1;endArrow=none;endFill=0;strokeColor=default;" parent="1" source="3pCu6Yg-yBueKO-Vz3sY-1" target="2c924340bb9dbf6c-55" edge="1">
          <mxGeometry relative="1" as="geometry" />
        </mxCell>
        <mxCell id="YYdvZUi9x7q3sWrVz7vb-14" style="edgeStyle=none;orthogonalLoop=1;jettySize=auto;html=1;endArrow=none;endFill=0;strokeColor=default;" parent="1" source="3pCu6Yg-yBueKO-Vz3sY-1" target="2c924340bb9dbf6c-1" edge="1">
          <mxGeometry relative="1" as="geometry" />
        </mxCell>
        <mxCell id="U8Jbh1e3QffMbMuOMiOq-2" style="rounded=0;orthogonalLoop=1;jettySize=auto;html=1;entryX=0.5;entryY=0;entryDx=0;entryDy=0;startArrow=none;startFill=0;endArrow=none;endFill=0;" parent="1" source="3pCu6Yg-yBueKO-Vz3sY-1" target="U8Jbh1e3QffMbMuOMiOq-1" edge="1">
          <mxGeometry relative="1" as="geometry" />
        </mxCell>
        <mxCell id="DkTE7H8ep8WP9eBdVDMX-2" style="rounded=0;orthogonalLoop=1;jettySize=auto;html=1;endArrow=none;endFill=0;" parent="1" source="3pCu6Yg-yBueKO-Vz3sY-1" target="DkTE7H8ep8WP9eBdVDMX-1" edge="1">
          <mxGeometry relative="1" as="geometry" />
        </mxCell>
        <mxCell id="3pCu6Yg-yBueKO-Vz3sY-1" value="Менеджер" style="shape=umlActor;verticalLabelPosition=bottom;verticalAlign=top;html=1;outlineConnect=0;fillColor=#f8cecc;strokeColor=#b85450;" parent="1" vertex="1">
          <mxGeometry x="290" y="150" width="30" height="60" as="geometry" />
        </mxCell>
        <mxCell id="YYdvZUi9x7q3sWrVz7vb-3" style="edgeStyle=none;orthogonalLoop=1;jettySize=auto;html=1;endArrow=none;endFill=0;strokeColor=default;" parent="1" source="3pCu6Yg-yBueKO-Vz3sY-8" target="2c924340bb9dbf6c-14" edge="1">
          <mxGeometry relative="1" as="geometry" />
        </mxCell>
        <mxCell id="YYdvZUi9x7q3sWrVz7vb-4" style="edgeStyle=none;orthogonalLoop=1;jettySize=auto;html=1;endArrow=none;endFill=0;strokeColor=default;" parent="1" source="3pCu6Yg-yBueKO-Vz3sY-8" target="2c924340bb9dbf6c-11" edge="1">
          <mxGeometry relative="1" as="geometry" />
        </mxCell>
        <mxCell id="YYdvZUi9x7q3sWrVz7vb-5" style="edgeStyle=none;orthogonalLoop=1;jettySize=auto;html=1;endArrow=none;endFill=0;strokeColor=default;" parent="1" source="3pCu6Yg-yBueKO-Vz3sY-8" target="2c924340bb9dbf6c-19" edge="1">
          <mxGeometry relative="1" as="geometry" />
        </mxCell>
        <mxCell id="YYdvZUi9x7q3sWrVz7vb-6" style="edgeStyle=none;orthogonalLoop=1;jettySize=auto;html=1;endArrow=none;endFill=0;strokeColor=default;" parent="1" source="3pCu6Yg-yBueKO-Vz3sY-8" target="2c924340bb9dbf6c-18" edge="1">
          <mxGeometry relative="1" as="geometry" />
        </mxCell>
        <mxCell id="3pCu6Yg-yBueKO-Vz3sY-8" value="Официант&amp;nbsp;" style="shape=umlActor;verticalLabelPosition=bottom;verticalAlign=top;html=1;outlineConnect=0;fillColor=#e1d5e7;strokeColor=#9673a6;" parent="1" vertex="1">
          <mxGeometry x="815" y="152.5" width="30" height="60" as="geometry" />
        </mxCell>
        <mxCell id="YYdvZUi9x7q3sWrVz7vb-7" value="" style="edgeStyle=none;orthogonalLoop=1;jettySize=auto;html=1;endArrow=none;endFill=0;strokeColor=default;" parent="1" source="3pCu6Yg-yBueKO-Vz3sY-15" target="3pCu6Yg-yBueKO-Vz3sY-18" edge="1">
          <mxGeometry relative="1" as="geometry" />
        </mxCell>
        <mxCell id="YYdvZUi9x7q3sWrVz7vb-8" value="" style="edgeStyle=none;orthogonalLoop=1;jettySize=auto;html=1;endArrow=none;endFill=0;strokeColor=default;" parent="1" source="3pCu6Yg-yBueKO-Vz3sY-15" target="3pCu6Yg-yBueKO-Vz3sY-20" edge="1">
          <mxGeometry relative="1" as="geometry" />
        </mxCell>
        <mxCell id="YYdvZUi9x7q3sWrVz7vb-9" value="" style="edgeStyle=none;orthogonalLoop=1;jettySize=auto;html=1;endArrow=none;endFill=0;strokeColor=default;" parent="1" source="3pCu6Yg-yBueKO-Vz3sY-15" target="3pCu6Yg-yBueKO-Vz3sY-17" edge="1">
          <mxGeometry relative="1" as="geometry" />
        </mxCell>
        <mxCell id="YYdvZUi9x7q3sWrVz7vb-10" value="" style="edgeStyle=none;orthogonalLoop=1;jettySize=auto;html=1;endArrow=none;endFill=0;strokeColor=default;" parent="1" source="3pCu6Yg-yBueKO-Vz3sY-15" target="3pCu6Yg-yBueKO-Vz3sY-19" edge="1">
          <mxGeometry relative="1" as="geometry" />
        </mxCell>
        <mxCell id="3pCu6Yg-yBueKO-Vz3sY-15" value="Клиент" style="shape=umlActor;verticalLabelPosition=bottom;verticalAlign=top;html=1;outlineConnect=0;fillColor=#e3c800;strokeColor=#B09500;fontColor=#000000;" parent="1" vertex="1">
          <mxGeometry x="287.5" y="440" width="30" height="60" as="geometry" />
        </mxCell>
        <mxCell id="3pCu6Yg-yBueKO-Vz3sY-17" value="Заказ блюд" style="whiteSpace=wrap;html=1;rounded=1;shadow=0;comic=0;labelBackgroundColor=none;strokeWidth=2;fontFamily=Verdana;fontSize=12;align=center;arcSize=50;" parent="1" vertex="1">
          <mxGeometry x="227.5" y="350" width="150" height="40" as="geometry" />
        </mxCell>
        <mxCell id="3pCu6Yg-yBueKO-Vz3sY-18" value="Просмотр меню" style="whiteSpace=wrap;html=1;rounded=1;shadow=0;comic=0;labelBackgroundColor=none;strokeWidth=2;fontFamily=Verdana;fontSize=12;align=center;arcSize=50;" parent="1" vertex="1">
          <mxGeometry x="387.5" y="450" width="150" height="40" as="geometry" />
        </mxCell>
        <mxCell id="3pCu6Yg-yBueKO-Vz3sY-19" value="Оплата счёта" style="whiteSpace=wrap;html=1;rounded=1;shadow=0;comic=0;labelBackgroundColor=none;strokeWidth=2;fontFamily=Verdana;fontSize=12;align=center;arcSize=50;" parent="1" vertex="1">
          <mxGeometry x="227.5" y="570" width="150" height="40" as="geometry" />
        </mxCell>
        <mxCell id="3pCu6Yg-yBueKO-Vz3sY-20" value="Оставление отзыва" style="whiteSpace=wrap;html=1;rounded=1;shadow=0;comic=0;labelBackgroundColor=none;strokeWidth=2;fontFamily=Verdana;fontSize=12;align=center;arcSize=50;" parent="1" vertex="1">
          <mxGeometry x="72.5" y="450" width="150" height="40" as="geometry" />
        </mxCell>
        <mxCell id="U8Jbh1e3QffMbMuOMiOq-1" value="Получение недостающей продукции" style="whiteSpace=wrap;html=1;rounded=1;shadow=0;comic=0;labelBackgroundColor=none;strokeWidth=2;fontFamily=Verdana;fontSize=12;align=center;arcSize=50;" parent="1" vertex="1">
          <mxGeometry x="370" y="240" width="150" height="40" as="geometry" />
        </mxCell>
        <mxCell id="U8Jbh1e3QffMbMuOMiOq-9" style="edgeStyle=none;rounded=0;orthogonalLoop=1;jettySize=auto;html=1;entryX=1;entryY=0.5;entryDx=0;entryDy=0;startArrow=none;startFill=0;endArrow=none;endFill=0;" parent="1" source="U8Jbh1e3QffMbMuOMiOq-3" target="U8Jbh1e3QffMbMuOMiOq-6" edge="1">
          <mxGeometry relative="1" as="geometry" />
        </mxCell>
        <mxCell id="U8Jbh1e3QffMbMuOMiOq-11" value="" style="edgeStyle=none;rounded=0;orthogonalLoop=1;jettySize=auto;html=1;startArrow=none;startFill=0;endArrow=none;endFill=0;" parent="1" source="U8Jbh1e3QffMbMuOMiOq-3" target="U8Jbh1e3QffMbMuOMiOq-5" edge="1">
          <mxGeometry relative="1" as="geometry" />
        </mxCell>
        <mxCell id="U8Jbh1e3QffMbMuOMiOq-13" style="edgeStyle=none;rounded=0;orthogonalLoop=1;jettySize=auto;html=1;entryX=0;entryY=0.5;entryDx=0;entryDy=0;startArrow=none;startFill=0;endArrow=none;endFill=0;" parent="1" source="U8Jbh1e3QffMbMuOMiOq-3" target="U8Jbh1e3QffMbMuOMiOq-4" edge="1">
          <mxGeometry relative="1" as="geometry" />
        </mxCell>
        <mxCell id="U8Jbh1e3QffMbMuOMiOq-15" style="edgeStyle=none;rounded=0;orthogonalLoop=1;jettySize=auto;html=1;entryX=0.5;entryY=0;entryDx=0;entryDy=0;startArrow=none;startFill=0;endArrow=none;endFill=0;" parent="1" source="U8Jbh1e3QffMbMuOMiOq-3" target="U8Jbh1e3QffMbMuOMiOq-14" edge="1">
          <mxGeometry relative="1" as="geometry" />
        </mxCell>
        <mxCell id="U8Jbh1e3QffMbMuOMiOq-3" value="Шеф-повар&amp;nbsp;" style="shape=umlActor;verticalLabelPosition=bottom;verticalAlign=top;html=1;outlineConnect=0;fillColor=#d5e8d4;strokeColor=#82b366;" parent="1" vertex="1">
          <mxGeometry x="815" y="400" width="30" height="60" as="geometry" />
        </mxCell>
        <mxCell id="U8Jbh1e3QffMbMuOMiOq-4" value="Готовка блюд" style="whiteSpace=wrap;html=1;rounded=1;shadow=0;comic=0;labelBackgroundColor=none;strokeWidth=2;fontFamily=Verdana;fontSize=12;align=center;arcSize=50;" parent="1" vertex="1">
          <mxGeometry x="915" y="360" width="100" height="50" as="geometry" />
        </mxCell>
        <mxCell id="U8Jbh1e3QffMbMuOMiOq-5" value="Формирование списка недостающих продуктов" style="whiteSpace=wrap;html=1;rounded=1;shadow=0;comic=0;labelBackgroundColor=none;strokeWidth=2;fontFamily=Verdana;fontSize=12;align=center;arcSize=50;" parent="1" vertex="1">
          <mxGeometry x="600" y="490" width="140" height="50" as="geometry" />
        </mxCell>
        <mxCell id="U8Jbh1e3QffMbMuOMiOq-6" value="Принятие заказа на кухне" style="whiteSpace=wrap;html=1;rounded=1;shadow=0;comic=0;labelBackgroundColor=none;strokeWidth=2;fontFamily=Verdana;fontSize=12;align=center;arcSize=50;" parent="1" vertex="1">
          <mxGeometry x="595" y="370" width="150" height="50" as="geometry" />
        </mxCell>
        <mxCell id="U8Jbh1e3QffMbMuOMiOq-14" value="Формирование меню" style="whiteSpace=wrap;html=1;rounded=1;shadow=0;comic=0;labelBackgroundColor=none;strokeWidth=2;fontFamily=Verdana;fontSize=12;align=center;arcSize=50;" parent="1" vertex="1">
          <mxGeometry x="900" y="490" width="140" height="50" as="geometry" />
        </mxCell>
        <mxCell id="DkTE7H8ep8WP9eBdVDMX-1" value="Установление цен в меню и разработка дизайна" style="whiteSpace=wrap;html=1;rounded=1;shadow=0;comic=0;labelBackgroundColor=none;strokeWidth=2;fontFamily=Verdana;fontSize=12;align=center;arcSize=50;" parent="1" vertex="1">
          <mxGeometry x="85" y="240" width="150" height="40" as="geometry" />
        </mxCell>
      </root>
    </mxGraphModel>
  </diagram>
</mxfile>
